<svg version="1.1" xmlns="http://www.w3.org/2000/svg" xmlns:xlink="http://www.w3.org/1999/xlink" width="40px" height="40px" viewBox="0,0,256,256"><g fill-opacity="0" fill="currentColor" fill-rule="nonzero" stroke="none" stroke-width="1" stroke-linecap="butt" stroke-linejoin="miter" stroke-miterlimit="10" stroke-dasharray="" stroke-dashoffset="0" font-family="none" font-weight="none" font-size="none" text-anchor="none" style="mix-blend-mode: normal"><path d="M0,256v-256h256v256z" id="bgRectangle"></path></g><g fill="currentColor" fill-rule="nonzero" stroke="none" stroke-width="1" stroke-linecap="butt" stroke-linejoin="miter" stroke-miterlimit="10" stroke-dasharray="" stroke-dashoffset="0" font-family="none" font-weight="none" font-size="none" text-anchor="none" style="mix-blend-mode: normal"><g transform="scale(3.55556,3.55556)"><path d="M36.00195,8c-1.00337,0 -2.0077,0.37595 -2.7832,1.12695l-8.56055,8.28906c-1.587,1.536 -1.6278,4.06925 -0.0918,5.65625c1.539,1.588 4.07125,1.62684 5.65625,0.08984l1.77734,-1.7207v38.55859c0,2.209 1.791,4 4,4c2.209,0 4,-1.791 4,-4v-38.56055l1.7793,1.72266c0.776,0.752 1.77825,1.12695 2.78125,1.12695c1.044,0 2.088,-0.4068 2.875,-1.2168c1.536,-1.587 1.4952,-4.11925 -0.0918,-5.65625l-8.56055,-8.28906c-0.775,-0.751 -1.77788,-1.12695 -2.78125,-1.12695z"></path></g></g></svg>