<svg id="Layer_1" data-name="Layer 1" xmlns="http://www.w3.org/2000/svg" viewBox="0 0 356.28 306.03"><defs><style>.cls-1{fill:#f40606;}.cls-2{font-size:45.48px;font-family:AdobeClean-Regular, Adobe Clean;letter-spacing:0.77em;}.cls-3{letter-spacing:0.75em;}.cls-4{letter-spacing:0.77em;}.cls-5{letter-spacing:0.75em;}</style></defs><title>RK-latest</title><path class="cls-1" d="M198.53,73" transform="translate(-88 -102.82)"/><path d="M153.52,352.88H92V102.82H219.11a69.88,69.88,0,0,1,20.49,4.1,72.64,72.64,0,0,1,32.8,24.6l-49.19,57.39v-20.5s0-20.49-16.4-20.49H153.52v57.39h36.89L305.19,352.88H231.41L157.62,254.5h-4.1Z" transform="translate(-88 -102.82)"/><polygon points="233.59 0 319.68 0 217.19 118.88 327.88 250.06 245.89 250.06 135.21 114.78 233.59 0"/><text class="cls-2" transform="translate(0 294.98)">E<tspan class="cls-3" x="58.26" y="0">VEN</tspan><tspan class="cls-4" x="241.52" y="0">T</tspan><tspan class="cls-5" x="300.33" y="0">S</tspan></text></svg>